<svg id="Layer_1" data-name="Layer 1" xmlns="http://www.w3.org/2000/svg" viewBox="0 0 144 144"><defs><style>.cls-1{fill:#af2125;}.cls-2{fill:none;stroke:#fff;stroke-miterlimit:10;stroke-width:3px;}</style></defs><title>add</title><circle class="cls-1" cx="72" cy="72" r="72"/><path class="cls-2" d="M107.81,63.18c.26-12-8.76-21.92-20.14-22.15a20.1,20.1,0,0,0-15.54,7A20.08,20.08,0,0,0,56.9,40.38c-11.37-.23-20.79,9.3-21,21.3a22.66,22.66,0,0,0,1.28,8c.25.71.49,1.43.71,2.15,6,20,32.66,31.76,32.66,31.76a53.56,53.56,0,0,0,33.76-28.7C106,71.56,107.72,67.54,107.81,63.18Z"/></svg>