<svg id="Layer_1" data-name="Layer 1" xmlns="http://www.w3.org/2000/svg" viewBox="0 0 144 144"><defs><style>.cls-1{fill:#af2125;}.cls-2{fill:#fff;}</style></defs><title>favourite</title><circle class="cls-1" cx="71.83" cy="72" r="72"/><path class="cls-2" d="M107.64,63.18c.26-12-8.76-21.92-20.14-22.15A20.07,20.07,0,0,0,72,48a20.12,20.12,0,0,0-15.24-7.61c-11.37-.23-20.79,9.3-21,21.3a22.66,22.66,0,0,0,1.28,8c.25.71.49,1.43.7,2.15,6.06,20,32.66,31.76,32.66,31.76a53.56,53.56,0,0,0,33.76-28.7C105.86,71.56,107.56,67.54,107.64,63.18Z"/></svg>