<svg xmlns="http://www.w3.org/2000/svg"><symbol id="add-bookmark" viewBox="0 0 144 144"><defs><style>.cls-1{fill:#af2126}</style></defs><path d="M72 0a72 72 0 1 0 72 72A72 72 0 0 0 72 0zm29 109.07c0 3.82-3.87 5.84-6.3 3.29L76.92 93.7a7.07 7.07 0 0 0-10-.2l-17.71 17.14C46.75 113 43 111 43 107.23v-61.1c0-2.44 1.7-4.42 3.78-4.42H97.2c2.08 0 3.78 2 3.78 4.42z" class="cls-1"/><path d="M94.47 46.13H50.16a3.44 3.44 0 0 0-3.32 3.55v49a3.31 3.31 0 0 0 5.44 2.73l15.53-13.75a6.63 6.63 0 0 1 8.83.16l15.61 15a3.3 3.3 0 0 0 5.54-2.64v-50.5a3.44 3.44 0 0 0-3.32-3.55z" class="cls-1"/></symbol><symbol id="exit" viewBox="0 0 144 144"><defs><style>.cls-1{fill:#231f20}</style></defs><path d="M13.55 66.33h116.91v11.33H13.55z" class="cls-1" transform="rotate(-45 72.002 71.996)"/><path d="M13.55 66.33h116.91v11.33H13.55z" class="cls-1" transform="rotate(-135 72 71.998)"/></symbol><symbol id="add" viewBox="0 0 144 144"><defs><style>.cls-1{fill:#af2125}</style></defs><path d="M72 0a72 72 0 1 0 72 72A72 72 0 0 0 72 0zm32.26 74.92a53.56 53.56 0 0 1-33.76 28.7S43.89 91.81 37.84 71.86c-.22-.72-.46-1.44-.71-2.15a22.66 22.66 0 0 1-1.28-8c.26-12 9.68-21.53 21-21.3A20.08 20.08 0 0 1 72.13 48a20.1 20.1 0 0 1 15.54-7c11.38.23 20.4 10.16 20.14 22.15-.09 4.39-1.81 8.41-3.55 11.77z" class="cls-1"/><path d="M103.38 64.28c.22-10.52-7.69-19.23-17.67-19.43A17.6 17.6 0 0 0 72.07 51a17.61 17.61 0 0 0-13.36-6.68c-10-.21-18.25 8.15-18.47 18.68a20 20 0 0 0 1.12 7c.22.63.43 1.25.62 1.89 5.31 17.51 28.66 27.87 28.66 27.87a47.05 47.05 0 0 0 29.62-25.19 23.48 23.48 0 0 0 3.12-10.29z" class="cls-1"/></symbol><symbol id="bookmark" viewBox="0 0 144 144"><defs><style>.cls-1{fill:#af2126}</style></defs><path d="M72 0a72 72 0 1 0 72 72A72 72 0 0 0 72 0zm29 109.07c0 3.82-3.87 5.84-6.3 3.29L76.92 93.7a7.07 7.07 0 0 0-10-.2l-17.71 17.14C46.75 113 43 111 43 107.23v-61.1c0-2.44 1.7-4.42 3.78-4.42H97.2c2.08 0 3.78 2 3.78 4.42z" class="cls-1"/></symbol><symbol id="add-star" viewBox="0 0 144 144"><defs><style>.cls-1{fill:#af2126}</style></defs><path d="M84.25 53.1L72 28.27 59.75 53.1l-27.4 3.98L52.18 76.4l-4.68 27.29L72 90.8l24.5 12.89-4.68-27.29 19.83-19.32-27.4-3.98z" class="cls-1"/><path d="M72 0a72 72 0 1 0 72 72A72 72 0 0 0 72 0zm27.57 108.4L72 93.91 44.43 108.4l5.27-30.7L27.4 56l30.82-4.48L72 23.56l13.78 27.93L116.6 56 94.3 77.7z" class="cls-1"/></symbol><symbol id="favourite" viewBox="0 0 144 144"><defs><style>.cls-1{fill:#af2125}</style></defs><path d="M71.83 0a72 72 0 1 0 72 72 72 72 0 0 0-72-72zm32.26 74.92a53.56 53.56 0 0 1-33.76 28.7s-26.6-11.81-32.66-31.76c-.21-.72-.45-1.44-.7-2.15a22.66 22.66 0 0 1-1.28-8c.25-12 9.67-21.53 21-21.3A20.12 20.12 0 0 1 72 48a20.07 20.07 0 0 1 15.5-7c11.38.23 20.4 10.16 20.14 22.15-.08 4.39-1.78 8.41-3.55 11.77z" class="cls-1"/></symbol><symbol id="hamburger" viewBox="0 0 144 144"><defs><style>.cls-1{fill:#231f20}</style></defs><path d="M13.76 42.07h116.91V53.4H13.76zm0 24.26h116.91v11.33H13.76zm0 24.27h116.91v11.33H13.76z" class="cls-1"/></symbol><symbol id="next" viewBox="0 0 144 144"><defs><style>.cls-1{fill:#af2126}.cls-2{fill:#fff}</style></defs><circle cx="72" cy="72" r="72" class="cls-1"/><rect width="82.36" height="8.04" x="23.74" y="69.22" class="cls-2" rx="4.02"/><rect width="41.96" height="8.04" x="66.65" y="60.74" class="cls-2" rx="4.02" transform="matrix(.87 .5 -.5 .87 44.12 -35.14)"/><rect width="41.96" height="8.04" x="66.65" y="78.08" class="cls-2" rx="4.02" transform="rotate(-31.5 87.606 82.086)"/></symbol><symbol id="like" viewBox="0 0 144 144"><defs><style>.cls-1{fill:#af2126}</style></defs><path d="M72 0a72 72 0 1 0 72 72A72 72 0 0 0 72 0zm27.57 107.54L72 93.05l-27.57 14.49 5.27-30.69-22.3-21.74 30.82-4.48L72 22.71l13.78 27.92 30.82 4.48-22.3 21.74z" class="cls-1"/></symbol><symbol id="search" viewBox="0 0 144 144"><defs><style>.cls-1{fill:#af2126;stroke:#af2126;stroke-miterlimit:10;stroke-width:4px}</style></defs><path d="M59.64 37a24.72 24.72 0 1 0 24.72 24.72A24.72 24.72 0 0 0 59.64 37zm0 46.11A21.39 21.39 0 1 1 81 61.72a21.39 21.39 0 0 1-21.36 21.39z" class="cls-1"/><path d="M73.44 79.57l4.36-3.82 31.28 25.17-6.12 6.08-29.52-27.43z" class="cls-1"/></symbol></svg>