<svg xmlns="http://www.w3.org/2000/svg"><symbol id="add-bookmark" viewBox="0 0 144 144"><defs><style>.cls-1{fill:#af2126}.cls-2{fill:none;stroke:#fff;stroke-miterlimit:10;stroke-width:3px}</style></defs><circle cx="72" cy="72" r="72" class="cls-1"/><path d="M46.8 41.71h50.4c2.08 0 3.78 2 3.78 4.42v62.94c0 3.82-3.87 5.84-6.3 3.29L76.92 93.7a7.07 7.07 0 0 0-10-.2l-17.71 17.14C46.75 113 43 111 43 107.23v-61.1c0-2.44 1.72-4.42 3.8-4.42z" class="cls-2"/></symbol><symbol id="add-star" viewBox="0 0 144 144"><defs><style>.cls-1{fill:#af2126}.cls-2{fill:none;stroke:#fff;stroke-linecap:round;stroke-linejoin:round;stroke-width:3px}</style></defs><circle cx="72" cy="72" r="72" class="cls-1"/><path d="M72 23.56l13.78 27.93 30.82 4.48L94.3 77.7l5.26 30.7L72 93.91 44.44 108.4l5.26-30.7-22.3-21.73 30.82-4.48L72 23.56z" class="cls-2"/></symbol><symbol id="exit" viewBox="0 0 144 144"><defs><style>.cls-1{fill:#231f20}</style></defs><path d="M13.55 66.33h116.91v11.33H13.55z" class="cls-1" transform="rotate(-45 72.002 71.996)"/><path d="M13.55 66.33h116.91v11.33H13.55z" class="cls-1" transform="rotate(-135 72 71.998)"/></symbol><symbol id="bookmark" viewBox="0 0 144 144"><defs><style>.cls-1{fill:#af2126}.cls-2{fill:#fff}</style></defs><circle cx="72" cy="72" r="72" class="cls-1"/><path d="M46.8 41.71h50.4c2.08 0 3.78 2 3.78 4.42v62.94c0 3.82-3.87 5.84-6.3 3.29L76.92 93.7a7.07 7.07 0 0 0-10-.2l-17.71 17.14C46.75 113 43 111 43 107.23v-61.1c0-2.44 1.72-4.42 3.8-4.42z" class="cls-2"/></symbol><symbol id="add" viewBox="0 0 144 144"><defs><style>.cls-1{fill:#af2125}.cls-2{fill:none;stroke:#fff;stroke-miterlimit:10;stroke-width:3px}</style></defs><circle cx="72" cy="72" r="72" class="cls-1"/><path d="M107.81 63.18c.26-12-8.76-21.92-20.14-22.15a20.1 20.1 0 0 0-15.54 7 20.08 20.08 0 0 0-15.23-7.65c-11.37-.23-20.79 9.3-21 21.3a22.66 22.66 0 0 0 1.28 8c.25.71.49 1.43.71 2.15 6 20 32.66 31.76 32.66 31.76a53.56 53.56 0 0 0 33.76-28.7c1.69-3.33 3.41-7.35 3.5-11.71z" class="cls-2"/></symbol><symbol id="like" viewBox="0 0 144 144"><defs><style>.cls-1{fill:#af2126}.cls-2{fill:#fff;stroke:#fff;stroke-linecap:round;stroke-linejoin:round;stroke-width:3.81px}</style></defs><circle cx="72" cy="72" r="72" class="cls-1"/><path d="M72 22.71l13.78 27.92 30.82 4.48-22.3 21.74 5.26 30.69L72 93.05l-27.56 14.49 5.26-30.69-22.3-21.74 30.82-4.48L72 22.71z" class="cls-2"/></symbol><symbol id="logo-16" viewBox="0 0 16 16"><defs><style>.cls-1{fill:#af2024}.cls-2{fill:#fff}.cls-3{fill:#231f20}.cls-4,.cls-5{fill:none;stroke:#231f20;stroke-miterlimit:10}.cls-4{stroke-linecap:round;stroke-width:.25px}.cls-5{stroke-width:.15px}</style></defs><path d="M4.25 9.86a.83.83 0 0 1 .84.84.83.83 0 0 1-.86.88.86.86 0 1 1 0-1.72zm0 .12c-.26 0-.45.25-.45.7s.17.79.51.79.43-.23.43-.7S4.5 10 4.21 10zm1.57.46a.35.35 0 0 1 .18 0 .52.52 0 0 1 .51.53.66.66 0 0 1-.67.65 1.16 1.16 0 0 1-.45-.09 1.21 1.21 0 0 0 0-.19v-1.22c0-.15 0-.17-.16-.18v-.08a4.46 4.46 0 0 0 .48-.09v.71zm-.1.82a.21.21 0 0 0 .2.21c.13 0 .23-.15.23-.46s-.16-.45-.31-.45h-.12zm1.67-.51c-.07-.18-.16-.26-.28-.26a.13.13 0 0 0-.13.13c0 .09.06.14.2.2s.34.18.34.38a.41.41 0 0 1-.46.37 1 1 0 0 1-.32-.07v-.32h.08c0 .16.16.31.32.31a.13.13 0 0 0 .15-.13c0-.08 0-.14-.2-.22s-.33-.16-.33-.37.17-.36.44-.36a1.3 1.3 0 0 1 .27 0v.3zm1.3.55a.58.58 0 0 1-.44.27.53.53 0 0 1-.55-.57.6.6 0 0 1 .3-.45.7.7 0 0 1 .44-.16.44.44 0 0 1 .22.06.11.11 0 0 1 .05.09c0 .07-.07.15-.12.15h-.05a.47.47 0 0 0-.26-.13c-.1 0-.22.09-.22.36a.4.4 0 0 0 .35.45.36.36 0 0 0 .27-.11zm1.42.18a4 4 0 0 0-.48.09v-.17a.55.55 0 0 1-.35.17c-.22 0-.33-.13-.33-.36v-.52c0-.12 0-.13-.09-.15v-.08h.47v.75c0 .17.09.22.17.22a.24.24 0 0 0 .19-.07v-.61c0-.12 0-.14-.09-.15h-.13v-.08h.48v.83c0 .13 0 .16.1.16h.06zm.77.06h-.67v-.08c.14 0 .15 0 .15-.18v-.56c0-.12 0-.14-.13-.16v-.08a2.26 2.26 0 0 0 .45-.1v.28c.12-.18.21-.27.31-.27a.15.15 0 0 1 .17.15.25.25 0 0 1-.13.22.07.07 0 0 1-.08 0s-.08-.07-.12-.07-.1 0-.15.13v.48c0 .15 0 .16.2.18zm1.38-.25a.59.59 0 0 1-.47.28.51.51 0 0 1-.53-.55.67.67 0 0 1 .19-.45.57.57 0 0 1 .4-.18.41.41 0 0 1 .41.41v.09a5.31 5.31 0 0 1-.65 0c0 .26.16.4.34.4a.48.48 0 0 0 .29-.11zm-.46-.8c-.11 0-.19.12-.21.32h.31v-.05c0-.05-.01-.27-.1-.27z" class="cls-1"/><path d="M3.16 6.62l2.55.6 6.74-1.05-.1 1.7-6.64 1.24-2.74-.88.19-1.61z" class="cls-2"/><path d="M2.87 6.17h.26a.12.12 0 0 1 .12.12v1.94a.23.23 0 0 1-.25.23.23.23 0 0 1-.23-.23v-2a.08.08 0 0 1 .1-.06z" class="cls-3"/><rect width="3.15" height=".53" x="2.73" y="8.34" class="cls-3" rx=".26" transform="rotate(17.8 4.294 8.618)"/><rect width="7.44" height=".44" x="5.4" y="8.26" class="cls-3" rx=".22" transform="rotate(-9.44 9.115 8.496)"/><path d="M12.6 7.85a1.38 1.38 0 0 1-.25-.57 2.19 2.19 0 0 1 .27-1.06M5.66 7.38a1.32 1.32 0 0 0-.29.77 1.24 1.24 0 0 0 .29.85" class="cls-4"/><circle cx="9.16" cy="7.73" r=".28" class="cls-1"/><circle cx="9.16" cy="7.73" r=".17"/><circle cx="9.05" cy="7.64" r=".04" class="cls-2"/><path d="M5.44 8.38l2.87-.51M10 7.55l2.44-.45m-7.14.71l-2.21-.59m0 .48l2.31.71m.01-.55l6.94-1.13m-2.28.81a1.83 1.83 0 0 0-1.25 0 2.2 2.2 0 0 0-.6.31A2 2 0 0 0 9.33 8a2 2 0 0 0 .55-.28z" class="cls-5"/><path d="M2.92 5.67H8.6a.23.23 0 0 1 .23.23.23.23 0 0 1-.23.23H3a.23.23 0 0 1-.23-.23v-.09a.14.14 0 0 1 .14-.14z" class="cls-3" transform="rotate(-9.44 5.792 5.905)"/><rect width="4.49" height=".47" x="8.37" y="5.53" class="cls-3" rx=".24" transform="rotate(9.48 10.62 5.798)"/><rect width="7.44" height=".44" x="5.4" y="6.47" class="cls-3" rx=".22" transform="rotate(-9.44 9.144 6.67)"/><path d="M8.57 5.67l-4.93.76 1.95.63 5.94-.93z" class="cls-3"/><rect width="3.15" height=".51" x="2.92" y="6.58" class="cls-3" rx=".21" transform="rotate(18.2 4.473 6.73)"/></symbol><symbol id="hamburger" viewBox="0 0 144 144"><defs><style>.cls-1{fill:#231f20}</style></defs><path d="M13.76 42.07h116.91V53.4H13.76zm0 24.26h116.91v11.33H13.76zm0 24.27h116.91v11.33H13.76z" class="cls-1"/></symbol><symbol id="favourite" viewBox="0 0 144 144"><defs><style>.cls-1{fill:#af2125}.cls-2{fill:#fff}</style></defs><circle cx="71.83" cy="72" r="72" class="cls-1"/><path d="M107.64 63.18c.26-12-8.76-21.92-20.14-22.15A20.07 20.07 0 0 0 72 48a20.12 20.12 0 0 0-15.24-7.61c-11.37-.23-20.79 9.3-21 21.3a22.66 22.66 0 0 0 1.28 8c.25.71.49 1.43.7 2.15 6.06 20 32.66 31.76 32.66 31.76a53.56 53.56 0 0 0 33.76-28.7c1.7-3.34 3.4-7.36 3.48-11.72z" class="cls-2"/></symbol><symbol id="next" viewBox="0 0 144 144"><defs><style>.cls-1{fill:#af2126}.cls-2{fill:none;stroke:#fff;stroke-linecap:round;stroke-linejoin:round;stroke-width:8.35px}</style></defs><circle cx="72" cy="72" r="72" class="cls-1"/><path d="M27.67 73.24h88.66L85.64 50.31m0 46.04l30.69-23.11" class="cls-2"/></symbol><symbol id="logo-32" viewBox="0 0 32 32"><defs><style>.cls-1{fill:#af2024}.cls-2{fill:#fff}.cls-3{fill:#231f20}.cls-4,.cls-5{fill:none;stroke:#231f20;stroke-miterlimit:10}.cls-4{stroke-linecap:round;stroke-width:2px}.cls-5{stroke-width:.35px}</style></defs><path d="M6.07 20.41a2.25 2.25 0 0 1 2.32 2.29A2.29 2.29 0 0 1 6 25.1a2.35 2.35 0 1 1 0-4.69zm-.1.3c-.71 0-1.23.69-1.23 1.91s.47 2.17 1.4 2.17c.66 0 1.17-.63 1.17-1.9S6.77 20.71 6 20.71zm4.4 1.29a1.19 1.19 0 0 1 .49-.13 1.41 1.41 0 0 1 1.4 1.46 1.8 1.8 0 0 1-1.82 1.78 3.29 3.29 0 0 1-1.23-.25V21.1c0-.4 0-.45-.43-.48v-.24a9.14 9.14 0 0 0 1.32-.23v1.94zm-.26 2.26a.75.75 0 0 0 0 .24.62.62 0 0 0 .49.32c.37 0 .64-.41.64-1.26s-.44-1.23-.85-1.23a1 1 0 0 0-.32.05zm4.55-1.44c-.18-.48-.41-.7-.74-.7a.36.36 0 0 0-.37.37c0 .24.18.37.54.53.56.25.94.48.94 1a1.14 1.14 0 0 1-1.26 1 2.3 2.3 0 0 1-.88-.21c0-.16-.09-.64-.11-.88L13 24c.14.44.43.84.88.84a.34.34 0 0 0 .39-.35c0-.22-.1-.38-.53-.59s-.9-.46-.9-1 .45-1 1.18-1a2.92 2.92 0 0 1 .75.11c0 .18.08.63.11.81zm3.58 1.5a1.59 1.59 0 0 1-1.2.76 1.46 1.46 0 0 1-1.52-1.49 1.67 1.67 0 0 1 .71-1.32 2 2 0 0 1 1.2-.43A1.08 1.08 0 0 1 18 22a.28.28 0 0 1 .13.25.44.44 0 0 1-.31.39.21.21 0 0 1-.15-.07 1.23 1.23 0 0 0-.72-.36c-.27 0-.6.26-.6 1a1.1 1.1 0 0 0 1 1.21 1 1 0 0 0 .74-.29zm3.86.51a12 12 0 0 0-1.31.25v-.47a1.54 1.54 0 0 1-.95.47.87.87 0 0 1-.91-1v-1.42c0-.32 0-.35-.23-.4h-.14V22c.35 0 .9-.07 1.28-.12v2c0 .45.23.6.47.6a.61.61 0 0 0 .5-.2v-1.61c0-.32 0-.38-.23-.41h-.21V22c.41 0 1-.07 1.34-.12v2.25c0 .36 0 .44.26.46h.15zm2.12.17h-1.83v-.23c.37 0 .4-.08.4-.49v-1.52c0-.35 0-.38-.35-.45v-.22a7 7 0 0 0 1.25-.26v.75c.31-.48.56-.74.84-.74a.42.42 0 0 1 .45.42.68.68 0 0 1-.35.59.2.2 0 0 1-.22 0c-.12-.1-.21-.21-.32-.21s-.28.09-.4.36v1.31c0 .41 0 .43.53.49zm3.78-.68a1.58 1.58 0 0 1-1.26.76 1.41 1.41 0 0 1-1.45-1.51 1.81 1.81 0 0 1 .52-1.24 1.56 1.56 0 0 1 1.08-.49A1.14 1.14 0 0 1 28 23c0 .12 0 .23-.09.26s-1.11.08-1.78.11c0 .73.43 1.1.93 1.1a1.17 1.17 0 0 0 .79-.31zm-1.25-2.19c-.28 0-.51.32-.56.87H27c.1 0 .14 0 .14-.14.02-.37-.14-.73-.41-.73z" class="cls-1"/><path d="M3.09 11.53l6.98 1.63 18.44-2.87-.27 4.66-18.17 3.38-7.49-2.4.51-4.4z" class="cls-2"/><path d="M2.15 10.29h1.12a.09.09 0 0 1 .09.09v6a.17.17 0 0 1-.17.17 1.09 1.09 0 0 1-1.09-1.09v-5.11a.06.06 0 0 1 .06-.06z" class="cls-3"/><path d="M2.12 16.23h8.21a.2.2 0 0 1 .2.2v.07a1.16 1.16 0 0 1-1.16 1.16H3.15a1.23 1.23 0 0 1-1.23-1.23.2.2 0 0 1 .2-.2z" class="cls-3" transform="rotate(17.8 6.22 16.952)"/><path d="M9.37 16h20.05a.15.15 0 0 1 .15.15v.91a.15.15 0 0 1-.15.15H10.28a1.06 1.06 0 0 1-1.06-1.06.15.15 0 0 1 .15-.15z" class="cls-3" transform="rotate(-9.44 19.42 16.602)"/><path d="M28.92 14.9a3.92 3.92 0 0 1-.67-1.56 6 6 0 0 1 .74-2.9M10 13.61a3.39 3.39 0 0 0-.8 2.12A3.46 3.46 0 0 0 10 18" class="cls-4"/><circle cx="19.51" cy="14.56" r=".76" class="cls-1"/><circle cx="19.51" cy="14.58" r=".45"/><circle cx="19.22" cy="14.31" r=".12" class="cls-2"/><path d="M9.33 16.34L17.19 15m4.66-.93l6.66-1.24M8.96 14.78L2.9 13.16m0 1.34l6.32 1.93m.05-1.52l19-3.09M22 14a5.45 5.45 0 0 0-1.67-.27 5.28 5.28 0 0 0-1.75.32A5.85 5.85 0 0 0 17 15a5.34 5.34 0 0 0 3 .21 5.14 5.14 0 0 0 1.5-.75A5.62 5.62 0 0 0 22 14z" class="cls-5"/><path d="M2.18 8.93h16.21a.23.23 0 0 1 .23.23v.79a.23.23 0 0 1-.23.23H2.26A.23.23 0 0 1 2 9.94v-.87a.14.14 0 0 1 .14-.14z" class="cls-3" transform="rotate(-9.2 10.59 9.788)"/><path d="M18.48 8.55h11a.17.17 0 0 1 .17.17v.95a.17.17 0 0 1-.17.17H17.53a.17.17 0 0 1-.17-.17 1.12 1.12 0 0 1 1.12-1.12z" class="cls-3" transform="rotate(9.48 23.472 9.225)"/><rect width="20.36" height="1.21" x="9.22" y="11.13" class="cls-3" rx=".22" transform="rotate(-9.44 19.396 11.723)"/><path d="M17.91 8.92L4.42 11l5.34 1.73L26 10.18z" class="cls-3"/><path d="M2.62 11.43h8.26a.18.18 0 0 1 .18.18 1.21 1.21 0 0 1-1.21 1.21H2.62a.18.18 0 0 1-.18-.18v-1a.18.18 0 0 1 .18-.21z" class="cls-3" transform="rotate(17.8 6.74 12.128)"/></symbol><symbol id="logo" viewBox="0 0 432 432"><defs><style>.cls-1{fill:#af2024}.cls-2,.cls-4,.cls-6{fill:#fff}.cls-3{fill:#231f20}.cls-4,.cls-5,.cls-6{stroke:#231f20;stroke-miterlimit:10}.cls-4,.cls-6{stroke-linecap:round}.cls-4{stroke-width:11px}.cls-5{fill:none;stroke-width:4px}.cls-6{stroke-width:15px}</style></defs><path d="M101.82 259.19c15.45 0 28.07 11.28 28.07 27.74 0 17.79-12.7 29-28.49 29-16.71 0-28.82-12.2-28.82-28.33 0-14.29 10.19-28.41 29.24-28.41zm-1.26 3.68c-8.52 0-14.78 8.35-14.78 23.14 0 14.12 5.6 26.23 16.87 26.23 7.94 0 14.12-7.69 14.12-23 0-16.52-6.51-26.37-16.21-26.37zm53.22 15.28a14.7 14.7 0 0 1 5.93-1.58c10.19 0 17 8.27 17 17.62a21.68 21.68 0 0 1-22 21.48 39.62 39.62 0 0 1-14.87-3c.08-2 .08-4.35.08-6.44v-38.69c0-4.76-.5-5.43-5.18-5.76v-2.84a113.37 113.37 0 0 0 16-2.84v23.47zm-3.09 27.32a8.28 8.28 0 0 0 .5 2.84 7.07 7.07 0 0 0 5.93 3.85c4.43 0 7.69-4.93 7.69-15.21 0-10.69-5.27-14.87-10.28-14.87a12.2 12.2 0 0 0-3.84.59zm54.97-17.04c-2.18-5.85-5-8.52-8.94-8.52a4.3 4.3 0 0 0-4.43 4.43c0 2.92 2.09 4.51 6.43 6.43 6.77 3 11.36 5.85 11.36 12.45 0 8.35-7.93 12.45-15.2 12.45a27.78 27.78 0 0 1-10.61-2.51c-.33-1.92-1.09-7.69-1.34-10.61l2.76-.5c1.75 5.26 5.18 10.19 10.61 10.19 3.17 0 4.76-1.92 4.76-4.34 0-2.59-1.25-4.52-6.43-7-5.51-2.68-10.86-5.6-10.86-12.53 0-6.6 5.43-11.78 14.28-11.78a38.48 38.48 0 0 1 9 1.25c.25 2.26 1 7.6 1.33 9.86zm43.27 18.13c-3.84 5.51-9.44 9.11-14.54 9.11-11.52 0-18.29-8.69-18.29-18a19.92 19.92 0 0 1 8.52-15.95 24.37 24.37 0 0 1 14.54-5.18 13.15 13.15 0 0 1 7.35 2 3.5 3.5 0 0 1 1.58 3.09c-.08 2.34-2.42 4.68-3.76 4.68a2.57 2.57 0 0 1-1.83-.92c-3.59-3-6.44-4.34-8.69-4.34-3.26 0-7.19 3.17-7.19 12.2 0 11.11 8.11 14.7 11.7 14.7a12.45 12.45 0 0 0 8.94-3.51zm46.7 6.1c-5 .67-10.36 1.75-15.87 3V310c-3.43 2.84-6.94 5.69-11.53 5.69-7 0-11-4.52-11-11.95v-17.3c0-3.84-.5-4.26-2.75-4.84l-1.76-.5v-2.67c4.26-.17 10.86-.76 15.54-1.43-.17 3.51-.25 7.86-.25 12.62v12.2c0 5.43 2.76 7.26 5.68 7.26a7.49 7.49 0 0 0 6-2.42v-20.15c0-3.84-.42-4.51-2.76-4.93l-2.51-.5v-2.67a156.84 156.84 0 0 0 16.2-1.41v27.24c0 4.34.5 5.26 3.17 5.51l1.84.17zm25.56 2h-22.05v-2.84c4.43-.5 4.84-.92 4.84-5.93v-18.3c0-4.17-.33-4.59-4.26-5.43v-2.59a79.86 79.86 0 0 0 15-3.17v9c3.76-5.76 6.77-8.85 10.19-8.85 3.09 0 5.43 2.09 5.43 5a8.12 8.12 0 0 1-4.26 7.1 2.3 2.3 0 0 1-2.59-.42c-1.42-1.17-2.5-2.5-3.92-2.5-1.26 0-3.35 1.08-4.85 4.26v15.87c0 5 .59 5.26 6.43 5.93zm45.53-8.19c-5.09 7.52-11.78 9.2-15.29 9.2-11.19 0-17.54-8.28-17.54-18.22a21.92 21.92 0 0 1 6.27-15 18.7 18.7 0 0 1 13-5.85A13.69 13.69 0 0 1 367 290.18c0 1.42-.08 2.84-1.08 3.1-1.59.41-13.37 1-21.47 1.33.33 8.86 5.26 13.37 11.28 13.37a14.42 14.42 0 0 0 9.52-3.76zM351.52 280c-3.34 0-6.18 3.93-6.69 10.53l10.11-.25c1.17-.09 1.67-.25 1.67-1.67.09-4.19-1.83-8.61-5.09-8.61z" class="cls-1"/><path d="M65.81 151.84l84.39 19.76 222.83-34.71-3.21 56.37-219.62 40.81-90.55-28.98 6.16-53.25z" class="cls-2"/><path d="M56.37 136.89H65a4.09 4.09 0 0 1 4.07 4.11v64a7.66 7.66 0 0 1-7.66 7.66 7.66 7.66 0 0 1-7.67-7.66v-65.48a2.63 2.63 0 0 1 2.63-2.63z" class="cls-3"/><rect width="104.22" height="17.39" x="51.66" y="208.77" class="cls-3" rx="8.69" transform="rotate(17.8 103.771 217.512)"/><rect width="246.08" height="14.62" x="139.89" y="206.27" class="cls-3" rx="6.17" transform="rotate(-9.44 262.834 213.513)"/><path d="M378 192.61c-4.86-7.64-7.68-14.18-8.06-18.87-1.35-16.8 8.95-35 8.95-35M148.68 177a40.76 40.76 0 0 0 0 52.54" class="cls-4"/><circle cx="264.3" cy="188.53" r="9.19" class="cls-1"/><circle cx="264.29" cy="188.77" r="5.49"/><circle cx="260.8" cy="185.49" r="1.44" class="cls-2"/><path d="M143.88 208.83l92.34-15.62m56.34-10.65L373 167.64m-236.19 23.59L63.55 171.6m0 16.16l71.38 20.07m9.07-15.07l225.82-37.32m-75.28 26.75A66.56 66.56 0 0 0 274.3 179a63.33 63.33 0 0 0-21.18 3.82c-8.52 3.06-15.58 7-19.76 10.35 3.3 1.18 20.65 7.24 36.62 2.53a63.6 63.6 0 0 0 18.12-9c2.38-1.61 5.14-3.36 6.44-4.51z" class="cls-5"/><path d="M56.72 120.45h191a5.72 5.72 0 0 1 5.72 5.72v3.56a5.72 5.72 0 0 1-5.72 5.72h-189a5.72 5.72 0 0 1-5.72-5.72v-5.63a3.66 3.66 0 0 1 3.66-3.66z" class="cls-3" transform="rotate(-9.44 153.207 127.883)"/><rect width="148.36" height="15.64" x="238.31" y="115.91" class="cls-3" rx="7.02" transform="rotate(9.48 312.502 123.751)"/><rect width="246.08" height="14.62" x="139.89" y="147.09" class="cls-3" rx="6.17" transform="rotate(-9.44 262.84 154.373)"/><path d="M63.55 146.73L144 171.6" class="cls-6"/><path d="M245 120.38L81.84 145.49l64.6 20.86 196.38-30.72z" class="cls-3"/></symbol><symbol id="logo-64" viewBox="0 0 64 64"><defs><style>.cls-1{fill:#af2024}.cls-2{fill:#fff}.cls-3{fill:#231f20}.cls-4,.cls-5{fill:none;stroke:#231f20;stroke-miterlimit:10}.cls-4{stroke-linecap:round;stroke-width:2px}.cls-5{stroke-width:.5px}</style></defs><path d="M15.48 39.14A3.77 3.77 0 0 1 19.37 43a3.83 3.83 0 0 1-4 4 3.93 3.93 0 1 1 .06-7.85zm-.17.51c-1.18 0-2.05 1.15-2.05 3.2s.78 3.63 2.34 3.63c1.1 0 2-1.06 2-3.18-.05-2.3-.95-3.65-2.29-3.65zm7.37 2.11a2 2 0 0 1 .82-.21A2.35 2.35 0 0 1 25.85 44a3 3 0 0 1-3.05 3 5.52 5.52 0 0 1-2.06-.42V40.3c0-.66-.07-.76-.72-.8v-.4a15.11 15.11 0 0 0 2.21-.39V42zm-.43 3.79a1 1 0 0 0 .07.39 1 1 0 0 0 .82.53c.61 0 1.06-.68 1.06-2.1s-.73-2.06-1.42-2.06a1.6 1.6 0 0 0-.53.08zm7.61-2.36c-.3-.81-.69-1.18-1.24-1.18a.59.59 0 0 0-.61.61c0 .41.29.63.89.89.94.42 1.57.81 1.57 1.73a1.9 1.9 0 0 1-2.1 1.76 3.75 3.75 0 0 1-1.47-.35c0-.26-.15-1.06-.19-1.47l.39-.07c.24.73.71 1.41 1.46 1.41a.58.58 0 0 0 .66-.6c0-.36-.17-.62-.89-1s-1.5-.77-1.5-1.73.75-1.63 2-1.63a5.34 5.34 0 0 1 1.25.17c0 .31.14 1.05.18 1.36zm5.99 2.51a2.68 2.68 0 0 1-2 1.26 2.44 2.44 0 0 1-2.53-2.49 2.75 2.75 0 0 1 1.18-2.21 3.4 3.4 0 0 1 2-.71 1.83 1.83 0 0 1 1 .27.5.5 0 0 1 .22.43c0 .32-.34.65-.53.65a.36.36 0 0 1-.25-.13 2 2 0 0 0-1.2-.6c-.45 0-1 .44-1 1.69a1.84 1.84 0 0 0 1.62 2 1.71 1.71 0 0 0 1.24-.48zm6.47.84c-.7.09-1.44.25-2.2.42v-.79a2.53 2.53 0 0 1-1.6.79A1.45 1.45 0 0 1 37 45.3v-2.39c0-.53-.07-.59-.38-.67l-.25-.07v-.37a20.72 20.72 0 0 0 2.15-.2V45c0 .75.38 1 .79 1a1 1 0 0 0 .83-.33v-2.75c0-.53-.06-.62-.38-.68l-.35-.07v-.37a19.05 19.05 0 0 0 2.23-.2v3.77c0 .61.07.73.44.77h.26zm3.54.28H42.8v-.39c.62-.07.67-.13.67-.82v-2.54c0-.58 0-.63-.59-.75V42a11.12 11.12 0 0 0 2.12-.48v1.25c.52-.8.93-1.22 1.41-1.22a.69.69 0 0 1 .75.69 1.12 1.12 0 0 1-.59 1 .32.32 0 0 1-.36-.06c-.2-.16-.35-.34-.54-.34s-.47.15-.67.59v2.2c0 .69.08.72.89.82zm6.3-1.13A2.65 2.65 0 0 1 50 47a2.36 2.36 0 0 1-2.43-2.52 3.1 3.1 0 0 1 .87-2.09 2.59 2.59 0 0 1 1.81-.8 1.9 1.9 0 0 1 1.91 1.88c0 .2 0 .39-.16.43s-1.85.14-3 .18c0 1.23.73 1.85 1.56 1.85a2 2 0 0 0 1.44-.56zM50.06 42c-.47 0-.86.54-.93 1.46h1.4c.16 0 .23 0 .23-.23.01-.6-.25-1.23-.7-1.23z" class="cls-1"/><path d="M10.5 24.28l11.68 2.73 30.85-4.8-.44 7.8-30.41 5.65-12.54-4.01.86-7.37z" class="cls-2"/><path d="M8.9 22.21h1.92a.12.12 0 0 1 .12.12v10.14a.23.23 0 0 1-.23.23h-.44a1.45 1.45 0 0 1-1.45-1.45v-9a.08.08 0 0 1 .08-.04z" class="cls-3"/><path d="M8.8 32.16h13.91a.26.26 0 0 1 .26.26v.66a1.49 1.49 0 0 1-1.49 1.49H10.12A1.58 1.58 0 0 1 8.54 33v-.56a.26.26 0 0 1 .26-.26z" class="cls-3" transform="rotate(17.8 15.756 33.353)"/><path d="M21 31.81h33.6a.22.22 0 0 1 .22.22v1.58a.22.22 0 0 1-.22.22H22.29a1.54 1.54 0 0 1-1.54-1.54V32a.22.22 0 0 1 .22-.22z" class="cls-3" transform="rotate(-9.44 37.775 32.811)"/><path d="M53.72 29.92a6.44 6.44 0 0 1-1.11-2.61 9.93 9.93 0 0 1 1.23-4.84M22 27.77a5.69 5.69 0 0 0-1.33 3.54A5.79 5.79 0 0 0 22 35" class="cls-4"/><circle cx="37.98" cy="29.36" r="1.27" class="cls-1"/><circle cx="37.98" cy="29.39" r=".76"/><circle cx="37.49" cy="28.93" r=".2" class="cls-2"/><path d="M20.93 32.34L34.09 30m7.8-1.47L53 26.46m-32.67 3.27l-10.15-2.72m0 2.24l10.57 3.23m.09-2.54l31.75-5.17m-10.42 3.71a9.36 9.36 0 0 0-2.81-.48 8.82 8.82 0 0 0-2.93.53A9.84 9.84 0 0 0 33.7 30a8.69 8.69 0 0 0 5.07.35 8.32 8.32 0 0 0 2.5-1.24c.33-.23.73-.47.9-.63z" class="cls-5"/><path d="M8.88 19.93h27.37a.23.23 0 0 1 .23.23v1.62a.23.23 0 0 1-.23.23H9a.23.23 0 0 1-.23-.23v-1.7a.14.14 0 0 1 .14-.14z" class="cls-3" transform="rotate(-9.44 22.597 20.95)"/><path d="M35.91 19.3h18.78a.24.24 0 0 1 .24.24v1.69a.24.24 0 0 1-.24.24H34.62a.24.24 0 0 1-.24-.24v-.4a1.53 1.53 0 0 1 1.53-1.53z" class="cls-3" transform="rotate(9.48 44.678 20.4)"/><rect width="34.07" height="2.02" x="20.75" y="23.62" class="cls-3" rx=".22" transform="rotate(-9.44 37.779 24.642)"/><path d="M35.3 19.92L12.72 23.4l8.94 2.89L48.85 22z" class="cls-3"/><path d="M9.62 24.11h14a.21.21 0 0 1 .21.21V25a1.42 1.42 0 0 1-1.42 1.42H9.62a.21.21 0 0 1-.21-.21v-1.89a.21.21 0 0 1 .21-.21z" class="cls-3" transform="rotate(17.8 16.617 25.269)"/></symbol><symbol id="search" viewBox="0 0 144 144"><defs><style>.cls-1{fill:#af2126;stroke:#af2126;stroke-miterlimit:10;stroke-width:4px}</style></defs><path d="M59.64 37a24.72 24.72 0 1 0 24.72 24.72A24.72 24.72 0 0 0 59.64 37zm0 46.11A21.39 21.39 0 1 1 81 61.72a21.39 21.39 0 0 1-21.36 21.39z" class="cls-1"/><path d="M73.44 79.57l4.36-3.82 31.28 25.17-6.12 6.08-29.52-27.43z" class="cls-1"/></symbol></svg>