<svg xmlns="http://www.w3.org/2000/svg"><symbol id="add-bookmark" viewBox="0 0 144 144"><defs><style>.cls-1{fill:#af2126}.cls-2{fill:none;stroke:#fff;stroke-miterlimit:10;stroke-width:3px}</style></defs><circle cx="72" cy="72" r="72" class="cls-1"/><path d="M46.8 41.71h50.4c2.08 0 3.78 2 3.78 4.42v62.94c0 3.82-3.87 5.84-6.3 3.29L76.92 93.7a7.07 7.07 0 0 0-10-.2l-17.71 17.14C46.75 113 43 111 43 107.23v-61.1c0-2.44 1.72-4.42 3.8-4.42z" class="cls-2"/></symbol><symbol id="add" viewBox="0 0 144 144"><defs><style>.cls-1{fill:#af2125}.cls-2{fill:none;stroke:#fff;stroke-miterlimit:10;stroke-width:3px}</style></defs><circle cx="72" cy="72" r="72" class="cls-1"/><path d="M107.81 63.18c.26-12-8.76-21.92-20.14-22.15a20.1 20.1 0 0 0-15.54 7 20.08 20.08 0 0 0-15.23-7.65c-11.37-.23-20.79 9.3-21 21.3a22.66 22.66 0 0 0 1.28 8c.25.71.49 1.43.71 2.15 6 20 32.66 31.76 32.66 31.76a53.56 53.56 0 0 0 33.76-28.7c1.69-3.33 3.41-7.35 3.5-11.71z" class="cls-2"/></symbol><symbol id="bookmark" viewBox="0 0 144 144"><defs><style>.cls-1{fill:#af2126}.cls-2{fill:#fff}</style></defs><circle cx="72" cy="72" r="72" class="cls-1"/><path d="M46.8 41.71h50.4c2.08 0 3.78 2 3.78 4.42v62.94c0 3.82-3.87 5.84-6.3 3.29L76.92 93.7a7.07 7.07 0 0 0-10-.2l-17.71 17.14C46.75 113 43 111 43 107.23v-61.1c0-2.44 1.72-4.42 3.8-4.42z" class="cls-2"/></symbol><symbol id="favourite" viewBox="0 0 144 144"><defs><style>.cls-1{fill:#af2125}.cls-2{fill:#fff}</style></defs><circle cx="71.83" cy="72" r="72" class="cls-1"/><path d="M107.64 63.18c.26-12-8.76-21.92-20.14-22.15A20.07 20.07 0 0 0 72 48a20.12 20.12 0 0 0-15.24-7.61c-11.37-.23-20.79 9.3-21 21.3a22.66 22.66 0 0 0 1.28 8c.25.71.49 1.43.7 2.15 6.06 20 32.66 31.76 32.66 31.76a53.56 53.56 0 0 0 33.76-28.7c1.7-3.34 3.4-7.36 3.48-11.72z" class="cls-2"/></symbol><symbol id="add-star" viewBox="0 0 144 144"><defs><style>.cls-1{fill:#af2126}.cls-2{fill:none;stroke:#fff;stroke-linecap:round;stroke-linejoin:round;stroke-width:3px}</style></defs><circle cx="72" cy="72" r="72" class="cls-1"/><path d="M72 23.56l13.78 27.93 30.82 4.48L94.3 77.7l5.26 30.7L72 93.91 44.44 108.4l5.26-30.7-22.3-21.73 30.82-4.48L72 23.56z" class="cls-2"/></symbol><symbol id="hamburger" viewBox="0 0 144 144"><defs><style>.cls-1{fill:#231f20}</style></defs><path d="M13.76 42.07h116.91V53.4H13.76zm0 24.26h116.91v11.33H13.76zm0 24.27h116.91v11.33H13.76z" class="cls-1"/></symbol><symbol id="next" viewBox="0 0 144 144"><defs><style>.cls-1{fill:#af2126}.cls-2{fill:none;stroke:#fff;stroke-linecap:round;stroke-linejoin:round;stroke-width:8.35px}</style></defs><circle cx="72" cy="72" r="72" class="cls-1"/><path d="M27.67 73.24h88.66L85.64 50.31m0 46.04l30.69-23.11" class="cls-2"/></symbol><symbol id="like" viewBox="0 0 144 144"><defs><style>.cls-1{fill:#af2126}.cls-2{fill:#fff;stroke:#fff;stroke-linecap:round;stroke-linejoin:round;stroke-width:3.81px}</style></defs><circle cx="72" cy="72" r="72" class="cls-1"/><path d="M72 22.71l13.78 27.92 30.82 4.48-22.3 21.74 5.26 30.69L72 93.05l-27.56 14.49 5.26-30.69-22.3-21.74 30.82-4.48L72 22.71z" class="cls-2"/></symbol><symbol id="exit" viewBox="0 0 144 144"><defs><style>.cls-1{fill:#231f20}</style></defs><path d="M13.55 66.33h116.91v11.33H13.55z" class="cls-1" transform="rotate(-45 72.002 71.996)"/><path d="M13.55 66.33h116.91v11.33H13.55z" class="cls-1" transform="rotate(-135 72 71.998)"/></symbol><symbol id="search" viewBox="0 0 144 144"><defs><style>.cls-1{fill:#af2126;stroke:#af2126;stroke-miterlimit:10;stroke-width:4px}</style></defs><path d="M59.64 37a24.72 24.72 0 1 0 24.72 24.72A24.72 24.72 0 0 0 59.64 37zm0 46.11A21.39 21.39 0 1 1 81 61.72a21.39 21.39 0 0 1-21.36 21.39z" class="cls-1"/><path d="M73.44 79.57l4.36-3.82 31.28 25.17-6.12 6.08-29.52-27.43z" class="cls-1"/></symbol></svg>