<svg id="Layer_1" data-name="Layer 1" xmlns="http://www.w3.org/2000/svg" viewBox="0 0 32 32"><defs><style>.cls-1{fill:#af2024;}.cls-2{fill:#fff;}.cls-3{fill:#231f20;}.cls-4,.cls-5{fill:none;stroke:#231f20;stroke-miterlimit:10;}.cls-4{stroke-linecap:round;stroke-width:2px;}.cls-5{stroke-width:0.35px;}</style></defs><title>logo-32px</title><path class="cls-1" d="M6.07,20.41A2.25,2.25,0,0,1,8.39,22.7,2.29,2.29,0,0,1,6,25.1a2.35,2.35,0,1,1,0-4.69Zm-.1.3c-.71,0-1.23.69-1.23,1.91s.47,2.17,1.4,2.17c.66,0,1.17-.63,1.17-1.9S6.77,20.71,6,20.71Z"/><path class="cls-1" d="M10.37,22a1.19,1.19,0,0,1,.49-.13,1.41,1.41,0,0,1,1.4,1.46,1.8,1.8,0,0,1-1.82,1.78,3.29,3.29,0,0,1-1.23-.25c0-.17,0-.36,0-.53V21.1c0-.4,0-.45-.43-.48v-.24a9.14,9.14,0,0,0,1.32-.23v1.94Zm-.26,2.26a.75.75,0,0,0,0,.24.62.62,0,0,0,.49.32c.37,0,.64-.41.64-1.26s-.44-1.23-.85-1.23a1,1,0,0,0-.32.05Z"/><path class="cls-1" d="M14.66,22.82c-.18-.48-.41-.7-.74-.7a.36.36,0,0,0-.37.37c0,.24.18.37.54.53.56.25.94.48.94,1a1.14,1.14,0,0,1-1.26,1,2.3,2.3,0,0,1-.88-.21c0-.16-.09-.64-.11-.88L13,24c.14.44.43.84.88.84a.34.34,0,0,0,.39-.35c0-.22-.1-.38-.53-.59s-.9-.46-.9-1,.45-1,1.18-1a2.92,2.92,0,0,1,.75.11c0,.18.08.63.11.81Z"/><path class="cls-1" d="M18.24,24.32a1.59,1.59,0,0,1-1.2.76,1.46,1.46,0,0,1-1.52-1.49,1.67,1.67,0,0,1,.71-1.32,2,2,0,0,1,1.2-.43A1.08,1.08,0,0,1,18,22a.28.28,0,0,1,.13.25.44.44,0,0,1-.31.39.21.21,0,0,1-.15-.07,1.23,1.23,0,0,0-.72-.36c-.27,0-.6.26-.6,1a1.1,1.1,0,0,0,1,1.21,1,1,0,0,0,.74-.29Z"/><path class="cls-1" d="M22.1,24.83a12,12,0,0,0-1.31.25v-.47a1.54,1.54,0,0,1-.95.47.87.87,0,0,1-.91-1V22.66c0-.32,0-.35-.23-.4l-.14,0V22c.35,0,.9-.07,1.28-.12,0,.29,0,.65,0,1v1c0,.45.23.6.47.6a.61.61,0,0,0,.5-.2V22.67c0-.32,0-.38-.23-.41l-.21,0V22c.41,0,1-.07,1.34-.12v2.25c0,.36,0,.44.26.46h.15Z"/><path class="cls-1" d="M24.22,25H22.39v-.23c.37,0,.4-.08.4-.49V22.76c0-.35,0-.38-.35-.45v-.22a7,7,0,0,0,1.25-.26v.75c.31-.48.56-.74.84-.74a.42.42,0,0,1,.45.42.68.68,0,0,1-.35.59.2.2,0,0,1-.22,0c-.12-.1-.21-.21-.32-.21s-.28.09-.4.36v1.31c0,.41,0,.43.53.49Z"/><path class="cls-1" d="M28,24.32a1.58,1.58,0,0,1-1.26.76,1.41,1.41,0,0,1-1.45-1.51,1.81,1.81,0,0,1,.52-1.24,1.56,1.56,0,0,1,1.08-.49A1.14,1.14,0,0,1,28,23c0,.12,0,.23-.09.26s-1.11.08-1.78.11c0,.73.43,1.1.93,1.1a1.17,1.17,0,0,0,.79-.31Zm-1.25-2.19c-.28,0-.51.32-.56.87L27,23c.1,0,.14,0,.14-.14C27.16,22.49,27,22.13,26.73,22.13Z"/><polygon class="cls-2" points="3.09 11.53 10.07 13.16 28.51 10.29 28.24 14.95 10.07 18.33 2.58 15.93 3.09 11.53"/><path class="cls-3" d="M2.15,10.29H3.27a.09.09,0,0,1,.09.09v6a.17.17,0,0,1-.17.17h0a1.09,1.09,0,0,1-1.09-1.09V10.35a.06.06,0,0,1,.06-.06Z"/><path class="cls-3" d="M2.12,16.23h8.21a.2.2,0,0,1,.2.2v.07a1.16,1.16,0,0,1-1.16,1.16H3.15a1.23,1.23,0,0,1-1.23-1.23v0a.2.2,0,0,1,.2-.2Z" transform="translate(5.48 -1.09) rotate(17.8)"/><path class="cls-3" d="M9.37,16H29.42a.15.15,0,0,1,.15.15v.91a.15.15,0,0,1-.15.15H10.28a1.06,1.06,0,0,1-1.06-1.06v0A.15.15,0,0,1,9.37,16Z" transform="translate(-2.46 3.41) rotate(-9.44)"/><path class="cls-4" d="M28.92,14.9a3.92,3.92,0,0,1-.67-1.56,6,6,0,0,1,.74-2.9h0"/><path class="cls-4" d="M10,13.61a3.39,3.39,0,0,0-.8,2.12A3.46,3.46,0,0,0,10,18"/><circle class="cls-1" cx="19.51" cy="14.56" r="0.76"/><circle cx="19.51" cy="14.58" r="0.45"/><circle class="cls-2" cx="19.22" cy="14.31" r="0.12"/><path class="cls-5" d="M9.33,16.34,17.19,15"/><path class="cls-5" d="M21.85,14.07l6.66-1.24"/><line class="cls-5" x1="8.96" y1="14.78" x2="2.9" y2="13.16"/><path class="cls-5" d="M2.9,14.5l6.32,1.93"/><path class="cls-5" d="M9.27,14.91l19-3.09"/><path class="cls-5" d="M22,14a5.45,5.45,0,0,0-1.67-.27,5.28,5.28,0,0,0-1.75.32A5.85,5.85,0,0,0,17,15a5.34,5.34,0,0,0,3,.21,5.14,5.14,0,0,0,1.5-.75A5.62,5.62,0,0,0,22,14Z"/><path class="cls-3" d="M2.18,8.93H18.39a.23.23,0,0,1,.23.23v.79a.23.23,0,0,1-.23.23H2.26A.23.23,0,0,1,2,9.94V9.07a.14.14,0,0,1,.14-.14Z" transform="matrix(0.99, -0.16, 0.16, 0.99, -1.43, 1.82)"/><path class="cls-3" d="M18.48,8.55h11a.17.17,0,0,1,.17.17v.95a.17.17,0,0,1-.17.17H17.53a.17.17,0,0,1-.17-.17v0a1.12,1.12,0,0,1,1.12-1.12Z" transform="translate(1.84 -3.74) rotate(9.48)"/><rect class="cls-3" x="9.22" y="11.13" width="20.36" height="1.21" rx="0.22" transform="translate(-1.66 3.34) rotate(-9.44)"/><path class="cls-3" d="M17.91,8.92,4.42,11l5.34,1.73L26,10.18Z"/><path class="cls-3" d="M2.62,11.43h8.26a.18.18,0,0,1,.18.18v0a1.21,1.21,0,0,1-1.21,1.21H2.62a.18.18,0,0,1-.18-.18v-1A.18.18,0,0,1,2.62,11.43Z" transform="translate(4.03 -1.48) rotate(17.8)"/></svg>