<svg id="Layer_1" data-name="Layer 1" xmlns="http://www.w3.org/2000/svg" viewBox="0 0 16 16"><defs><style>.cls-1{fill:#af2024;}.cls-2{fill:#fff;}.cls-3{fill:#231f20;}.cls-4,.cls-5{fill:none;stroke:#231f20;stroke-miterlimit:10;}.cls-4{stroke-linecap:round;stroke-width:0.25px;}.cls-5{stroke-width:0.15px;}</style></defs><title>logo-16px</title><path class="cls-1" d="M4.25,9.86a.83.83,0,0,1,.84.84.83.83,0,0,1-.86.88.86.86,0,1,1,0-1.72Zm0,.12c-.26,0-.45.25-.45.7s.17.79.51.79.43-.23.43-.7S4.5,10,4.21,10Z"/><path class="cls-1" d="M5.82,10.44a.35.35,0,0,1,.18,0,.52.52,0,0,1,.51.53.66.66,0,0,1-.67.65,1.16,1.16,0,0,1-.45-.09,1.21,1.21,0,0,0,0-.19V10.12c0-.15,0-.17-.16-.18V9.86a4.46,4.46,0,0,0,.48-.09v.71Zm-.1.82a.21.21,0,0,0,.2.21c.13,0,.23-.15.23-.46s-.16-.45-.31-.45H5.72Z"/><path class="cls-1" d="M7.39,10.75c-.07-.18-.16-.26-.28-.26a.13.13,0,0,0-.13.13c0,.09.06.14.2.2s.34.18.34.38a.41.41,0,0,1-.46.37,1,1,0,0,1-.32-.07c0-.06,0-.24,0-.32l.08,0c0,.16.16.31.32.31a.13.13,0,0,0,.15-.13c0-.08,0-.14-.2-.22s-.33-.16-.33-.37.17-.36.44-.36a1.3,1.3,0,0,1,.27,0l0,.3Z"/><path class="cls-1" d="M8.69,11.3a.58.58,0,0,1-.44.27A.53.53,0,0,1,7.7,11,.6.6,0,0,1,8,10.55a.7.7,0,0,1,.44-.16.44.44,0,0,1,.22.06.11.11,0,0,1,.05.09c0,.07-.07.15-.12.15l-.05,0a.47.47,0,0,0-.26-.13c-.1,0-.22.09-.22.36a.4.4,0,0,0,.35.45.36.36,0,0,0,.27-.11Z"/><path class="cls-1" d="M10.11,11.48a4,4,0,0,0-.48.09V11.4a.55.55,0,0,1-.35.17c-.22,0-.33-.13-.33-.36v-.52c0-.12,0-.13-.09-.15h0v-.08l.47,0c0,.11,0,.24,0,.38v.37c0,.17.09.22.17.22a.24.24,0,0,0,.19-.07v-.61c0-.12,0-.14-.09-.15H9.47v-.08l.48,0v.83c0,.13,0,.16.1.16h.06Z"/><path class="cls-1" d="M10.88,11.54h-.67v-.08c.14,0,.15,0,.15-.18v-.56c0-.12,0-.14-.13-.16v-.08a2.26,2.26,0,0,0,.45-.1v.28c.12-.18.21-.27.31-.27a.15.15,0,0,1,.17.15.25.25,0,0,1-.13.22.07.07,0,0,1-.08,0s-.08-.07-.12-.07-.1,0-.15.13v.48c0,.15,0,.16.2.18Z"/><path class="cls-1" d="M12.26,11.29a.59.59,0,0,1-.47.28.51.51,0,0,1-.53-.55.67.67,0,0,1,.19-.45.57.57,0,0,1,.4-.18.41.41,0,0,1,.41.41s0,.09,0,.09a5.31,5.31,0,0,1-.65,0c0,.26.16.4.34.4a.48.48,0,0,0,.29-.11Zm-.46-.8c-.11,0-.19.12-.21.32h.31s0,0,0-.05S11.89,10.49,11.8,10.49Z"/><polygon class="cls-2" points="3.16 6.62 5.71 7.22 12.45 6.17 12.35 7.87 5.71 9.11 2.97 8.23 3.16 6.62"/><path class="cls-3" d="M2.87,6.17h.26a.12.12,0,0,1,.12.12V8.23A.23.23,0,0,1,3,8.46H3a.23.23,0,0,1-.23-.23v-2A.08.08,0,0,1,2.87,6.17Z"/><rect class="cls-3" x="2.73" y="8.34" width="3.15" height="0.53" rx="0.26" transform="translate(2.84 -0.9) rotate(17.8)"/><rect class="cls-3" x="5.4" y="8.26" width="7.44" height="0.44" rx="0.22" transform="translate(-1.27 1.61) rotate(-9.44)"/><path class="cls-4" d="M12.6,7.85a1.38,1.38,0,0,1-.25-.57,2.19,2.19,0,0,1,.27-1.06h0"/><path class="cls-4" d="M5.66,7.38a1.32,1.32,0,0,0-.29.77A1.24,1.24,0,0,0,5.66,9"/><circle class="cls-1" cx="9.16" cy="7.73" r="0.28"/><circle cx="9.16" cy="7.73" r="0.17"/><circle class="cls-2" cx="9.05" cy="7.64" r="0.04"/><path class="cls-5" d="M5.44,8.38l2.87-.51"/><path class="cls-5" d="M10,7.55l2.44-.45"/><line class="cls-5" x1="5.3" y1="7.81" x2="3.09" y2="7.22"/><path class="cls-5" d="M3.09,7.7l2.31.71"/><path class="cls-5" d="M5.41,7.86l6.94-1.13"/><path class="cls-5" d="M10.07,7.54a1.83,1.83,0,0,0-1.25,0,2.2,2.2,0,0,0-.6.31A2,2,0,0,0,9.33,8a2,2,0,0,0,.55-.28Z"/><path class="cls-3" d="M2.92,5.67H8.6a.23.23,0,0,1,.23.23v0a.23.23,0,0,1-.23.23H3a.23.23,0,0,1-.23-.23V5.81a.14.14,0,0,1,.14-.14Z" transform="translate(-0.89 1.03) rotate(-9.44)"/><rect class="cls-3" x="8.37" y="5.53" width="4.49" height="0.47" rx="0.24" transform="translate(1.1 -1.67) rotate(9.48)"/><rect class="cls-3" x="5.4" y="6.47" width="7.44" height="0.44" rx="0.22" transform="translate(-0.97 1.59) rotate(-9.44)"/><path class="cls-3" d="M8.57,5.67l-4.93.76,1.95.63,5.94-.93Z"/><rect class="cls-3" x="2.92" y="6.58" width="3.15" height="0.51" rx="0.21" transform="matrix(0.95, 0.31, -0.31, 0.95, 2.31, -1.05)"/></svg>