<svg id="Layer_1" data-name="Layer 1" xmlns="http://www.w3.org/2000/svg" viewBox="0 0 432 432"><defs><style>.cls-1,.cls-3,.cls-6{fill:#fff;}.cls-2{fill:#231f20;}.cls-3,.cls-6{stroke:#000;stroke-linecap:round;}.cls-3,.cls-5,.cls-6{stroke-miterlimit:10;}.cls-3{stroke-width:11px;}.cls-4{fill:#af2024;}.cls-5{fill:none;stroke:#231f20;stroke-width:3px;}.cls-6{stroke-width:15px;}</style></defs><title>logo</title><polygon class="cls-1" points="70.75 194.11 155.15 213.86 377.98 179.16 374.76 235.52 155.15 276.33 64.59 247.35 70.75 194.11"/><path class="cls-2" d="M61.32,179.16h8.61A4.09,4.09,0,0,1,74,183.24v64a7.66,7.66,0,0,1-7.66,7.66h0a7.66,7.66,0,0,1-7.66-7.66V181.79a2.63,2.63,0,0,1,2.63-2.63Z"/><rect class="cls-2" x="56.61" y="251.04" width="104.22" height="17.39" rx="8.69" transform="matrix(0.95, 0.31, -0.31, 0.95, 84.62, -20.8)"/><rect class="cls-2" x="144.83" y="248.53" width="246.08" height="14.62" rx="6.17" transform="translate(-38.32 47.38) rotate(-9.44)"/><path class="cls-3" d="M381.57,234.87A40.75,40.75,0,0,1,374.89,216c-1.36-16.8,8.94-34.95,8.94-34.95h0"/><path class="cls-3" d="M153.63,219.31a40.72,40.72,0,0,0,0,52.54"/><circle class="cls-4" cx="269.24" cy="229.79" r="9.19"/><circle cx="269.24" cy="230.03" r="5.49"/><circle class="cls-1" cx="265.74" cy="226.75" r="1.44"/><path class="cls-5" d="M148.83,250.1l92.33-15.63"/><path class="cls-5" d="M297.5,223.83,378,208.9"/><line class="cls-5" x1="141.76" y1="233.49" x2="68.49" y2="213.86"/><line class="cls-5" x1="68.49" y1="230.03" x2="139.87" y2="250.1"/><line class="cls-5" x1="148.94" y1="235.03" x2="374.76" y2="197.7"/><path class="cls-5" d="M298.58,223.63a59.49,59.49,0,0,0-19.33-3.33,63.7,63.7,0,0,0-21.18,3.83,65.55,65.55,0,0,0-19,10.7c3.3,1.19,19.93,6.89,35.9,2.18a64.27,64.27,0,0,0,18.12-9A65.4,65.4,0,0,0,298.58,223.63Z"/><path class="cls-2" d="M61.66,162.71h191a5.72,5.72,0,0,1,5.72,5.72V172a5.72,5.72,0,0,1-5.72,5.72h-189A5.72,5.72,0,0,1,58,172v-5.62a3.66,3.66,0,0,1,3.66-3.66Z" transform="translate(-25.77 28.24) rotate(-9.44)"/><rect class="cls-2" x="243.26" y="158.18" width="148.36" height="15.64" rx="7.02" transform="translate(31.68 -50.02) rotate(9.48)"/><rect class="cls-2" x="144.83" y="189.36" width="246.08" height="14.62" rx="6.17" transform="translate(-28.62 46.58) rotate(-9.44)"/><line class="cls-6" x1="68.49" y1="188.99" x2="148.94" y2="213.86"/><path class="cls-2" d="M249.91,162.65,86.79,187.76l64.6,20.86L347.77,177.9Z"/><path class="cls-4" d="M71.5,294.15c19.63,0,35.65,14.32,35.65,35.21C107.15,352,91,366.17,71,366.17c-21.21,0-36.6-15.48-36.6-36C34.37,312.07,47.32,294.15,71.5,294.15Zm-1.59,4.66c-10.82,0-18.77,10.61-18.77,29.39,0,17.93,7.1,33.31,21.42,33.31,10.08,0,17.93-9.76,17.93-29.18C90.49,311.33,82.22,298.81,69.91,298.81Z"/><path class="cls-4" d="M137.48,318.23a18.61,18.61,0,0,1,7.53-2c13,0,21.54,10.5,21.54,22.38,0,15.07-12.41,27.27-27.9,27.27-6.15,0-11.56-1.06-18.88-3.82.1-2.55.1-5.52.1-8.17V304.75c0-6-.63-6.89-6.57-7.32v-3.6a143.35,143.35,0,0,0,20.26-3.61V320Zm-3.92,34.68a10.71,10.71,0,0,0,.63,3.61,9,9,0,0,0,7.54,4.88c5.62,0,9.76-6.26,9.76-19.31,0-13.57-6.69-18.88-13.05-18.88a15.86,15.86,0,0,0-4.88.74Z"/><path class="cls-4" d="M203.36,331.27c-2.76-7.42-6.37-10.82-11.35-10.82a5.47,5.47,0,0,0-5.63,5.63c0,3.71,2.66,5.72,8.17,8.16,8.59,3.82,14.43,7.43,14.43,15.81,0,10.61-10.08,15.81-19.31,15.81a35.18,35.18,0,0,1-13.47-3.19c-.42-2.44-1.38-9.76-1.7-13.47l3.5-.64c2.23,6.69,6.58,12.95,13.48,12.95,4,0,6-2.44,6-5.52,0-3.29-1.59-5.73-8.17-8.91-7-3.4-13.79-7.11-13.79-15.91,0-8.38,6.9-15,18.14-15a49,49,0,0,1,11.46,1.59c.32,2.87,1.27,9.66,1.7,12.52Z"/><path class="cls-4" d="M258.3,354.29c-4.88,7-12,11.57-18.45,11.57-14.64,0-23.24-11-23.24-22.81,0-7.85,4-15.28,10.82-20.26,7-5.2,13.69-6.58,18.46-6.58a16.62,16.62,0,0,1,9.34,2.55,4.44,4.44,0,0,1,2,3.92c-.1,3-3.07,5.94-4.77,5.94a3.29,3.29,0,0,1-2.33-1.16c-4.57-3.82-8.17-5.52-11-5.52-4.13,0-9.12,4-9.12,15.49,0,14.11,10.29,18.67,14.85,18.67,4.35,0,7.53-1.17,11.35-4.46Z"/><path class="cls-4" d="M317.6,362c-6.36.85-13.15,2.22-20.15,3.82v-7.22c-4.35,3.61-8.81,7.22-14.64,7.22-8.91,0-13.9-5.73-13.9-15.17v-22c0-4.88-.64-5.41-3.5-6.16l-2.23-.63v-3.4c5.41-.21,13.79-1,19.73-1.8-.21,4.46-.31,10-.31,16v15.49c0,6.89,3.5,9.23,7.21,9.23a9.51,9.51,0,0,0,7.64-3.08V328.83c0-4.88-.53-5.72-3.5-6.26l-3.19-.63v-3.4a197.86,197.86,0,0,0,20.48-1.8v34.58c0,5.52.63,6.69,4,7l2.33.22Z"/><path class="cls-4" d="M350.06,364.58h-28V361c5.62-.64,6.15-1.17,6.15-7.53V330.21c0-5.3-.42-5.83-5.41-6.89V320a102.44,102.44,0,0,0,19.1-4v11.46c4.77-7.32,8.59-11.25,12.94-11.25,3.92,0,6.89,2.65,6.89,6.36a10.31,10.31,0,0,1-5.41,9,2.91,2.91,0,0,1-3.29-.53c-1.8-1.48-3.18-3.18-5-3.18-1.59,0-4.25,1.38-6.15,5.41v20.16c0,6.36.74,6.68,8.16,7.53Z"/><path class="cls-4" d="M407.88,354.19c-6.47,9.54-15,11.67-19.42,11.67-14.21,0-22.27-10.51-22.27-23.13a27.87,27.87,0,0,1,7.95-19.09c4.78-4.78,10.72-7.43,16.55-7.43a17.39,17.39,0,0,1,17.5,17.29c0,1.8-.1,3.61-1.38,3.93-2,.53-17,1.27-27.26,1.69.43,11.25,6.68,17,14.32,17a18.31,18.31,0,0,0,12.1-4.78Zm-19.31-33.63c-4.24,0-7.85,5-8.49,13.37,4.35-.11,8.38-.22,12.84-.32,1.48-.11,2.12-.32,2.12-2.12C395.15,326.18,392.71,320.56,388.57,320.56Z"/></svg>