<svg id="Layer_1" data-name="Layer 1" xmlns="http://www.w3.org/2000/svg" viewBox="0 0 64 64"><defs><style>.cls-1{fill:#af2024;}.cls-2{fill:#fff;}.cls-3{fill:#231f20;}.cls-4,.cls-5{fill:none;stroke:#231f20;stroke-miterlimit:10;}.cls-4{stroke-linecap:round;stroke-width:2px;}.cls-5{stroke-width:0.5px;}</style></defs><title>logo-64px</title><path class="cls-1" d="M15.48,39.14A3.77,3.77,0,0,1,19.37,43a3.83,3.83,0,0,1-4,4,3.93,3.93,0,1,1,.06-7.85Zm-.17.51c-1.18,0-2.05,1.15-2.05,3.2s.78,3.63,2.34,3.63c1.1,0,2-1.06,2-3.18C17.55,41,16.65,39.65,15.31,39.65Z"/><path class="cls-1" d="M22.68,41.76a2,2,0,0,1,.82-.21A2.35,2.35,0,0,1,25.85,44a3,3,0,0,1-3.05,3,5.52,5.52,0,0,1-2.06-.42c0-.28,0-.6,0-.89V40.3c0-.66-.07-.76-.72-.8v-.4a15.11,15.11,0,0,0,2.21-.39V42Zm-.43,3.79a1,1,0,0,0,.07.39,1,1,0,0,0,.82.53c.61,0,1.06-.68,1.06-2.1s-.73-2.06-1.42-2.06a1.6,1.6,0,0,0-.53.08Z"/><path class="cls-1" d="M29.86,43.19c-.3-.81-.69-1.18-1.24-1.18a.59.59,0,0,0-.61.61c0,.41.29.63.89.89.94.42,1.57.81,1.57,1.73A1.9,1.9,0,0,1,28.37,47a3.75,3.75,0,0,1-1.47-.35c0-.26-.15-1.06-.19-1.47l.39-.07c.24.73.71,1.41,1.46,1.41a.58.58,0,0,0,.66-.6c0-.36-.17-.62-.89-1s-1.5-.77-1.5-1.73.75-1.63,2-1.63a5.34,5.34,0,0,1,1.25.17c0,.31.14,1.05.18,1.36Z"/><path class="cls-1" d="M35.85,45.7a2.68,2.68,0,0,1-2,1.26,2.44,2.44,0,0,1-2.53-2.49,2.75,2.75,0,0,1,1.18-2.21,3.4,3.4,0,0,1,2-.71,1.83,1.83,0,0,1,1,.27.5.5,0,0,1,.22.43c0,.32-.34.65-.53.65a.36.36,0,0,1-.25-.13,2,2,0,0,0-1.2-.6c-.45,0-1,.44-1,1.69a1.84,1.84,0,0,0,1.62,2,1.71,1.71,0,0,0,1.24-.48Z"/><path class="cls-1" d="M42.32,46.54c-.7.09-1.44.25-2.2.42v-.79a2.53,2.53,0,0,1-1.6.79A1.45,1.45,0,0,1,37,45.3V42.91c0-.53-.07-.59-.38-.67l-.25-.07V41.8a20.72,20.72,0,0,0,2.15-.2c0,.49,0,1.09,0,1.75V45c0,.75.38,1,.79,1a1,1,0,0,0,.83-.33V42.92c0-.53-.06-.62-.38-.68l-.35-.07V41.8a19.05,19.05,0,0,0,2.23-.2v3.77c0,.61.07.73.44.77l.26,0Z"/><path class="cls-1" d="M45.86,46.82H42.8v-.39c.62-.07.67-.13.67-.82V43.07c0-.58,0-.63-.59-.75V42A11.12,11.12,0,0,0,45,41.52v1.25c.52-.8.93-1.22,1.41-1.22a.69.69,0,0,1,.75.69,1.12,1.12,0,0,1-.59,1,.32.32,0,0,1-.36-.06c-.2-.16-.35-.34-.54-.34s-.47.15-.67.59v2.2c0,.69.08.72.89.82Z"/><path class="cls-1" d="M52.16,45.69A2.65,2.65,0,0,1,50,47a2.36,2.36,0,0,1-2.43-2.52,3.1,3.1,0,0,1,.87-2.09,2.59,2.59,0,0,1,1.81-.8,1.9,1.9,0,0,1,1.91,1.88c0,.2,0,.39-.16.43s-1.85.14-3,.18c0,1.23.73,1.85,1.56,1.85A2,2,0,0,0,52,45.37ZM50.06,42c-.47,0-.86.54-.93,1.46l1.4,0c.16,0,.23,0,.23-.23C50.77,42.63,50.51,42,50.06,42Z"/><polygon class="cls-2" points="10.5 24.28 22.18 27.01 53.03 22.21 52.59 30.01 22.18 35.66 9.64 31.65 10.5 24.28"/><path class="cls-3" d="M8.9,22.21h1.92a.12.12,0,0,1,.12.12V32.47a.23.23,0,0,1-.23.23h-.44a1.45,1.45,0,0,1-1.45-1.45v-9A.08.08,0,0,1,8.9,22.21Z"/><path class="cls-3" d="M8.8,32.16H22.71a.26.26,0,0,1,.26.26v.66a1.49,1.49,0,0,1-1.49,1.49H10.12A1.58,1.58,0,0,1,8.54,33v-.56a.26.26,0,0,1,.26-.26Z" transform="translate(10.95 -3.22) rotate(17.8)"/><path class="cls-3" d="M21,31.81H54.6a.22.22,0,0,1,.22.22v1.58a.22.22,0,0,1-.22.22H22.29a1.54,1.54,0,0,1-1.54-1.54V32a.22.22,0,0,1,.22-.22Z" transform="translate(-4.87 6.64) rotate(-9.44)"/><path class="cls-4" d="M53.72,29.92a6.44,6.44,0,0,1-1.11-2.61,9.93,9.93,0,0,1,1.23-4.84h0"/><path class="cls-4" d="M22,27.77a5.69,5.69,0,0,0-1.33,3.54A5.79,5.79,0,0,0,22,35"/><circle class="cls-1" cx="37.98" cy="29.36" r="1.27"/><circle cx="37.98" cy="29.39" r="0.76"/><circle class="cls-2" cx="37.49" cy="28.93" r="0.2"/><path class="cls-5" d="M20.93,32.34,34.09,30"/><path class="cls-5" d="M41.89,28.53,53,26.46"/><line class="cls-5" x1="20.33" y1="29.73" x2="10.18" y2="27.01"/><path class="cls-5" d="M10.18,29.25l10.57,3.23"/><path class="cls-5" d="M20.84,29.94l31.75-5.17"/><path class="cls-5" d="M42.17,28.48A9.36,9.36,0,0,0,39.36,28a8.82,8.82,0,0,0-2.93.53A9.84,9.84,0,0,0,33.7,30a8.69,8.69,0,0,0,5.07.35,8.32,8.32,0,0,0,2.5-1.24C41.6,28.88,42,28.64,42.17,28.48Z"/><path class="cls-3" d="M8.88,19.93H36.25a.23.23,0,0,1,.23.23v1.62a.23.23,0,0,1-.23.23H9a.23.23,0,0,1-.23-.23v-1.7a.14.14,0,0,1,.14-.14Z" transform="translate(-3.13 3.99) rotate(-9.44)"/><path class="cls-3" d="M35.91,19.3H54.69a.24.24,0,0,1,.24.24v1.69a.24.24,0,0,1-.24.24H34.62a.24.24,0,0,1-.24-.24v-.4a1.53,1.53,0,0,1,1.53-1.53Z" transform="translate(3.97 -7.08) rotate(9.48)"/><rect class="cls-3" x="20.75" y="23.62" width="34.07" height="2.02" rx="0.22" transform="translate(-3.53 6.53) rotate(-9.44)"/><path class="cls-3" d="M35.3,19.92,12.72,23.4l8.94,2.89L48.85,22Z"/><path class="cls-3" d="M9.62,24.11h14a.21.21,0,0,1,.21.21V25a1.42,1.42,0,0,1-1.42,1.42H9.62a.21.21,0,0,1-.21-.21V24.32a.21.21,0,0,1,.21-.21Z" transform="translate(8.52 -3.87) rotate(17.8)"/></svg>