<svg id="Layer_1" data-name="Layer 1" xmlns="http://www.w3.org/2000/svg" viewBox="0 0 432 432"><defs><style>.cls-1{fill:#af2024;}.cls-2,.cls-4,.cls-6{fill:#fff;}.cls-3{fill:#231f20;}.cls-4,.cls-5,.cls-6{stroke:#231f20;stroke-miterlimit:10;}.cls-4,.cls-6{stroke-linecap:round;}.cls-4{stroke-width:11px;}.cls-5{fill:none;stroke-width:4px;}.cls-6{stroke-width:15px;}</style></defs><title>logo-phone</title><path class="cls-1" d="M101.82,259.19c15.45,0,28.07,11.28,28.07,27.74,0,17.79-12.7,29-28.49,29-16.71,0-28.82-12.2-28.82-28.33C72.58,273.31,82.77,259.19,101.82,259.19Zm-1.26,3.68c-8.52,0-14.78,8.35-14.78,23.14,0,14.12,5.6,26.23,16.87,26.23,7.94,0,14.12-7.69,14.12-23C116.77,272.72,110.26,262.87,100.56,262.87Z"/><path class="cls-1" d="M153.78,278.15a14.7,14.7,0,0,1,5.93-1.58c10.19,0,17,8.27,17,17.62a21.68,21.68,0,0,1-22,21.48,39.62,39.62,0,0,1-14.87-3c.08-2,.08-4.35.08-6.44V267.54c0-4.76-.5-5.43-5.18-5.76v-2.84a113.37,113.37,0,0,0,16-2.84v23.47Zm-3.09,27.32a8.28,8.28,0,0,0,.5,2.84,7.07,7.07,0,0,0,5.93,3.85c4.43,0,7.69-4.93,7.69-15.21,0-10.69-5.27-14.87-10.28-14.87a12.2,12.2,0,0,0-3.84.59Z"/><path class="cls-1" d="M205.66,288.43c-2.18-5.85-5-8.52-8.94-8.52a4.3,4.3,0,0,0-4.43,4.43c0,2.92,2.09,4.51,6.43,6.43,6.77,3,11.36,5.85,11.36,12.45,0,8.35-7.93,12.45-15.2,12.45a27.78,27.78,0,0,1-10.61-2.51c-.33-1.92-1.09-7.69-1.34-10.61l2.76-.5c1.75,5.26,5.18,10.19,10.61,10.19,3.17,0,4.76-1.92,4.76-4.34,0-2.59-1.25-4.52-6.43-7-5.51-2.68-10.86-5.6-10.86-12.53,0-6.6,5.43-11.78,14.28-11.78a38.48,38.48,0,0,1,9,1.25c.25,2.26,1,7.6,1.33,9.86Z"/><path class="cls-1" d="M248.93,306.56c-3.84,5.51-9.44,9.11-14.54,9.11-11.52,0-18.29-8.69-18.29-18a19.92,19.92,0,0,1,8.52-15.95,24.37,24.37,0,0,1,14.54-5.18,13.15,13.15,0,0,1,7.35,2,3.5,3.5,0,0,1,1.58,3.09c-.08,2.34-2.42,4.68-3.76,4.68a2.57,2.57,0,0,1-1.83-.92c-3.59-3-6.44-4.34-8.69-4.34-3.26,0-7.19,3.17-7.19,12.2,0,11.11,8.11,14.7,11.7,14.7a12.45,12.45,0,0,0,8.94-3.51Z"/><path class="cls-1" d="M295.63,312.66c-5,.67-10.36,1.75-15.87,3V310c-3.43,2.84-6.94,5.69-11.53,5.69-7,0-11-4.52-11-11.95v-17.3c0-3.84-.5-4.26-2.75-4.84l-1.76-.5v-2.67c4.26-.17,10.86-.76,15.54-1.43-.17,3.51-.25,7.86-.25,12.62v12.2c0,5.43,2.76,7.26,5.68,7.26a7.49,7.49,0,0,0,6-2.42V286.51c0-3.84-.42-4.51-2.76-4.93l-2.51-.5v-2.67A156.84,156.84,0,0,0,290.62,277v27.24c0,4.34.5,5.26,3.17,5.51l1.84.17Z"/><path class="cls-1" d="M321.19,314.66H299.14v-2.84c4.43-.5,4.84-.92,4.84-5.93v-18.3c0-4.17-.33-4.59-4.26-5.43v-2.59a79.86,79.86,0,0,0,15-3.17v9c3.76-5.76,6.77-8.85,10.19-8.85,3.09,0,5.43,2.09,5.43,5a8.12,8.12,0,0,1-4.26,7.1,2.3,2.3,0,0,1-2.59-.42c-1.42-1.17-2.5-2.5-3.92-2.5-1.26,0-3.35,1.08-4.85,4.26v15.87c0,5,.59,5.26,6.43,5.93Z"/><path class="cls-1" d="M366.72,306.47c-5.09,7.52-11.78,9.2-15.29,9.2-11.19,0-17.54-8.28-17.54-18.22a21.92,21.92,0,0,1,6.27-15,18.7,18.7,0,0,1,13-5.85A13.69,13.69,0,0,1,367,290.18c0,1.42-.08,2.84-1.08,3.1-1.59.41-13.37,1-21.47,1.33.33,8.86,5.26,13.37,11.28,13.37a14.42,14.42,0,0,0,9.52-3.76ZM351.52,280c-3.34,0-6.18,3.93-6.69,10.53l10.11-.25c1.17-.09,1.67-.25,1.67-1.67C356.7,284.42,354.78,280,351.52,280Z"/><polygon class="cls-2" points="65.81 151.84 150.2 171.6 373.03 136.89 369.82 193.26 150.2 234.07 59.65 205.09 65.81 151.84"/><path class="cls-3" d="M56.37,136.89H65A4.09,4.09,0,0,1,69.07,141v64a7.66,7.66,0,0,1-7.66,7.66h0A7.66,7.66,0,0,1,53.74,205V139.52a2.63,2.63,0,0,1,2.63-2.63Z"/><rect class="cls-3" x="51.66" y="208.77" width="104.22" height="17.39" rx="8.69" transform="translate(71.46 -21.31) rotate(17.8)"/><rect class="cls-3" x="139.89" y="206.27" width="246.08" height="14.62" rx="6.17" transform="translate(-31.46 46) rotate(-9.44)"/><path class="cls-4" d="M378,192.61c-4.86-7.64-7.68-14.18-8.06-18.87-1.35-16.8,8.95-35,8.95-35h0"/><path class="cls-4" d="M148.68,177a40.76,40.76,0,0,0,0,52.54"/><circle class="cls-1" cx="264.3" cy="188.53" r="9.19"/><circle cx="264.29" cy="188.77" r="5.49"/><circle class="cls-2" cx="260.8" cy="185.49" r="1.44"/><path class="cls-5" d="M143.88,208.83l92.34-15.62"/><path class="cls-5" d="M292.56,182.56,373,167.64"/><line class="cls-5" x1="136.81" y1="191.23" x2="63.55" y2="171.6"/><line class="cls-5" x1="63.55" y1="187.76" x2="134.93" y2="207.83"/><line class="cls-5" x1="144" y1="192.76" x2="369.82" y2="155.44"/><path class="cls-5" d="M294.54,182.19A66.56,66.56,0,0,0,274.3,179a63.33,63.33,0,0,0-21.18,3.82c-8.52,3.06-15.58,7-19.76,10.35,3.3,1.18,20.65,7.24,36.62,2.53a63.6,63.6,0,0,0,18.12-9C290.48,185.09,293.24,183.34,294.54,182.19Z"/><path class="cls-3" d="M56.72,120.45h191a5.72,5.72,0,0,1,5.72,5.72v3.56a5.72,5.72,0,0,1-5.72,5.72h-189a5.72,5.72,0,0,1-5.72-5.72V124.1a3.66,3.66,0,0,1,3.66-3.66Z" transform="translate(-18.9 26.86) rotate(-9.44)"/><rect class="cls-3" x="238.31" y="115.91" width="148.36" height="15.64" rx="7.02" transform="translate(24.65 -49.78) rotate(9.48)"/><rect class="cls-3" x="139.89" y="147.09" width="246.08" height="14.62" rx="6.17" transform="translate(-21.76 45.2) rotate(-9.44)"/><line class="cls-6" x1="63.55" y1="146.73" x2="144" y2="171.6"/><path class="cls-3" d="M245,120.38,81.84,145.49l64.6,20.86,196.38-30.72Z"/></svg>